<?xml version="1.0" encoding="UTF-8" standalone="no"?>
<!-- Generated by Graphviz version 2.14.1 (Fri Nov  9 08:19:38 GMT 2007)
     For user: (upriss) Uta Priss -->
<!-- Title: Lat Pages: 1 -->
<svg
   xmlns:dc="http://purl.org/dc/elements/1.1/"
   xmlns:cc="http://web.resource.org/cc/"
   xmlns:rdf="http://www.w3.org/1999/02/22-rdf-syntax-ns#"
   xmlns:svg="http://www.w3.org/2000/svg"
   xmlns="http://www.w3.org/2000/svg"
   xmlns:sodipodi="http://sodipodi.sourceforge.net/DTD/sodipodi-0.dtd"
   xmlns:inkscape="http://www.inkscape.org/namespaces/inkscape"
   width="573pt"
   height="790pt"
   viewBox="0.00 0.00 573.00 790.00"
   id="svg2713"
   sodipodi:version="0.32"
   inkscape:version="0.45.1"
   sodipodi:docname="lattice.svg"
   sodipodi:docbase="/Users/upriss/Sites/public/fca/examples"
   inkscape:output_extension="org.inkscape.output.svg.inkscape">
  <metadata
     id="metadata3213">
    <rdf:RDF>
      <cc:Work
         rdf:about="">
        <dc:format>image/svg+xml</dc:format>
        <dc:type
           rdf:resource="http://purl.org/dc/dcmitype/StillImage" />
      </cc:Work>
    </rdf:RDF>
  </metadata>
  <defs
     id="defs3211">
    <title
       id="title2716">Lat</title>
  </defs>
  <sodipodi:namedview
     inkscape:window-height="753"
     inkscape:window-width="1007"
     inkscape:pageshadow="2"
     inkscape:pageopacity="0.0"
     guidetolerance="10.0"
     gridtolerance="10.0"
     objecttolerance="10.0"
     borderopacity="1.0"
     bordercolor="#666666"
     pagecolor="#ffffff"
     id="base"
     inkscape:zoom="0.62183576"
     inkscape:cx="358.125"
     inkscape:cy="588.12946"
     inkscape:window-x="4"
     inkscape:window-y="22"
     inkscape:current-layer="svg2713" />
  <polygon
     id="polygon2718"
     points="-4,4 -4,-786 569,-786 569,4 -4,4 "
     style="fill:#ffffff;stroke:#ffffff"
     transform="translate(4,786)" />
  <g
     class="node"
     id="node1"
     transform="translate(4,786)">
    <title
       id="title2721">c0</title>
    <ellipse
       sodipodi:ry="9"
       sodipodi:rx="9"
       sodipodi:cy="-21"
       sodipodi:cx="370"
       id="ellipse2723"
       ry="9"
       rx="9"
       cy="-21"
       cx="370"
       style="fill:#d3d3d3;stroke:#000000" />
  </g>
  <g
     class="edge"
     id="edge2"
     transform="translate(4,786)">
    <title
       id="title2726">c0-&gt;c0</title>
    <path
       id="path2728"
       d="M 379,-24 C 387,-26 397,-25 397,-21 C 397,-17 387,-16 379,-18"
       style="fill:none;stroke:none" />
    <text
       id="text2730"
       style="font-size:14px;text-anchor:middle;font-family:Times New Roman"
       y="-37"
       x="375">Boolean lattice; uniquely complemented</text>
  </g>
  <g
     class="edge"
     id="edge4"
     transform="translate(4,786)">
    <title
       id="title2733">c0-&gt;c0</title>
    <path
       id="path2735"
       d="M 378,-25 C 394,-31 415,-29 415,-21 C 415,-13 394,-11 378,-17"
       style="fill:none;stroke:none" />
    <text
       id="text2737"
       style="font-size:14px;text-anchor:middle;font-family:Times New Roman"
       y="-0"
       x="375">I</text>
  </g>
  <g
     class="node"
     id="node4"
     transform="translate(4,786)">
    <title
       id="title2740">c1</title>
    <ellipse
       sodipodi:ry="9"
       sodipodi:rx="9"
       sodipodi:cy="-113"
       sodipodi:cx="328"
       id="ellipse2742"
       ry="9"
       rx="9"
       cy="-113"
       cx="328"
       style="fill:#d3d3d3;stroke:#000000" />
  </g>
  <g
     class="edge"
     id="edge52"
     transform="translate(4,786)">
    <title
       id="title2745">c1-&gt;c0</title>
    <path
       id="path2747"
       d="M 332,-105 C 340,-87 358,-47 366,-29"
       style="fill:none;stroke:#000000" />
  </g>
  <g
     class="edge"
     id="edge6"
     transform="translate(4,786)">
    <title
       id="title2750">c1-&gt;c1</title>
    <path
       id="path2752"
       d="M 335,-119 C 344,-123 355,-122 355,-113 C 355,-104 344,-103 335,-107"
       style="fill:none;stroke:none" />
    <text
       id="text2754"
       style="font-size:14px;text-anchor:middle;font-family:Times New Roman"
       y="-91"
       x="331">2</text>
  </g>
  <g
     class="node"
     id="node6"
     transform="translate(4,786)">
    <title
       id="title2757">c2</title>
    <ellipse
       sodipodi:ry="9"
       sodipodi:rx="9"
       sodipodi:cy="-205"
       sodipodi:cx="308"
       id="ellipse2759"
       ry="9"
       rx="9"
       cy="-205"
       cx="308"
       style="fill:#d3d3d3;stroke:#000000" />
  </g>
  <g
     class="edge"
     id="edge54"
     transform="translate(4,786)">
    <title
       id="title2762">c2-&gt;c1</title>
    <path
       id="path2764"
       d="M 310,-196 C 314,-178 322,-139 326,-122"
       style="fill:none;stroke:#000000" />
  </g>
  <g
     class="edge"
     id="edge8"
     transform="translate(4,786)">
    <title
       id="title2767">c2-&gt;c2</title>
    <path
       id="path2769"
       d="M 315,-211 C 324,-215 335,-214 335,-205 C 335,-196 324,-195 315,-199"
       style="fill:none;stroke:none" />
    <text
       id="text2771"
       style="font-size:14px;text-anchor:middle;font-family:Times New Roman"
       y="-183"
       x="311">10</text>
  </g>
  <g
     class="node"
     id="node8"
     transform="translate(4,786)">
    <title
       id="title2774">c3</title>
    <ellipse
       sodipodi:ry="9"
       sodipodi:rx="9"
       sodipodi:cy="-259"
       sodipodi:cx="401"
       id="ellipse2776"
       ry="9"
       rx="9"
       cy="-259"
       cx="401"
       style="fill:#d3d3d3;stroke:#000000" />
  </g>
  <g
     class="edge"
     id="edge56"
     transform="translate(4,786)">
    <title
       id="title2779">c3-&gt;c0</title>
    <path
       id="path2781"
       d="M 401,-250 C 401,-232 401,-192 401,-159 C 401,-159 401,-159 401,-113 C 401,-80 384,-45 375,-29"
       style="fill:none;stroke:#000000" />
  </g>
  <g
     class="edge"
     id="edge10"
     transform="translate(4,786)">
    <title
       id="title2784">c3-&gt;c3</title>
    <path
       id="path2786"
       d="M 410,-263 C 418,-265 428,-263 428,-259 C 428,-255 418,-253 410,-255"
       style="fill:none;stroke:none" />
    <text
       id="text2788"
       style="font-size:14px;text-anchor:middle;font-family:Times New Roman"
       y="-276"
       x="406">Stonean</text>
  </g>
  <g
     class="edge"
     id="edge12"
     transform="translate(4,786)">
    <title
       id="title2791">c3-&gt;c3</title>
    <path
       id="path2793"
       d="M 409,-264 C 425,-271 446,-269 446,-259 C 446,-249 425,-247 409,-254"
       style="fill:none;stroke:none" />
    <text
       id="text2795"
       style="font-size:14px;text-anchor:middle;font-family:Times New Roman"
       y="-238"
       x="406">1</text>
  </g>
  <g
     class="node"
     id="node11"
     transform="translate(4,786)">
    <title
       id="title2798">c4</title>
    <ellipse
       sodipodi:ry="9"
       sodipodi:rx="9"
       sodipodi:cy="-405"
       sodipodi:cx="401"
       id="ellipse2800"
       ry="9"
       rx="9"
       cy="-405"
       cx="401"
       style="fill:#d3d3d3;stroke:#000000" />
  </g>
  <g
     class="edge"
     id="edge58"
     transform="translate(4,786)">
    <title
       id="title2803">c4-&gt;c3</title>
    <path
       id="path2805"
       d="M 401,-396 C 401,-370 401,-294 401,-268"
       style="fill:none;stroke:#000000" />
  </g>
  <g
     class="edge"
     id="edge14"
     transform="translate(4,786)">
    <title
       id="title2808">c4-&gt;c4</title>
    <path
       id="path2810"
       d="M 410,-408 C 418,-410 428,-409 428,-405 C 428,-401 418,-400 410,-402"
       style="fill:none;stroke:none" />
    <text
       id="text2812"
       style="font-size:14px;text-anchor:middle;font-family:Times New Roman"
       y="-421"
       x="406">Brouwerian; distributive</text>
  </g>
  <g
     class="edge"
     id="edge16"
     transform="translate(4,786)">
    <title
       id="title2815">c4-&gt;c4</title>
    <path
       id="path2817"
       d="M 409,-409 C 425,-415 446,-413 446,-405 C 446,-397 425,-395 409,-401"
       style="fill:none;stroke:none" />
    <text
       id="text2819"
       style="font-size:14px;text-anchor:middle;font-family:Times New Roman"
       y="-384"
       x="406">6</text>
  </g>
  <g
     class="node"
     id="node14"
     transform="translate(4,786)">
    <title
       id="title2822">c5</title>
    <ellipse
       sodipodi:ry="9"
       sodipodi:rx="9"
       sodipodi:cy="-497"
       sodipodi:cx="398"
       id="ellipse2824"
       ry="9"
       rx="9"
       cy="-497"
       cx="398"
       style="fill:#d3d3d3;stroke:#000000" />
  </g>
  <g
     class="edge"
     id="edge60"
     transform="translate(4,786)">
    <title
       id="title2827">c5-&gt;c1</title>
    <path
       id="path2829"
       d="M 393,-489 C 383,-474 363,-438 363,-405 C 363,-405 363,-405 363,-205 C 363,-172 343,-136 333,-121"
       style="fill:none;stroke:#000000" />
  </g>
  <g
     class="edge"
     id="edge62"
     transform="translate(4,786)">
    <title
       id="title2832">c5-&gt;c4</title>
    <path
       id="path2834"
       d="M 398,-488 C 399,-471 400,-432 401,-414"
       style="fill:none;stroke:#000000" />
  </g>
  <g
     class="edge"
     id="edge18"
     transform="translate(18.151647,784.71349)">
    <title
       id="title2837">c5-&gt;c5</title>
    <path
       id="path2839"
       d="M 407,-500 C 415,-502 425,-501 425,-497 C 425,-493 415,-492 407,-494"
       style="fill:none;stroke:none" />
    <text
       id="text2841"
       style="font-size:14px;text-anchor:middle;font-family:Times New Roman"
       y="-513"
       x="403">metric lattice; modular</text>
  </g>
  <g
     class="edge"
     id="edge20"
     transform="translate(4,786)">
    <title
       id="title2844">c5-&gt;c5</title>
    <path
       id="path2846"
       d="M 406,-501 C 422,-507 443,-505 443,-497 C 443,-489 422,-487 406,-493"
       style="fill:none;stroke:none" />
    <text
       id="text2848"
       style="font-size:14px;text-anchor:middle;font-family:Times New Roman"
       y="-476"
       x="403">IV</text>
  </g>
  <g
     class="node"
     id="node17"
     transform="translate(4,786)">
    <title
       id="title2851">c6</title>
    <ellipse
       sodipodi:ry="9"
       sodipodi:rx="9"
       sodipodi:cy="-205"
       sodipodi:cx="234"
       id="ellipse2853"
       ry="9"
       rx="9"
       cy="-205"
       cx="234"
       style="fill:#d3d3d3;stroke:#000000" />
  </g>
  <g
     class="edge"
     id="edge64"
     transform="translate(4,786)">
    <title
       id="title2856">c6-&gt;c1</title>
    <path
       id="path2858"
       d="M 240,-199 C 258,-182 304,-136 322,-119"
       style="fill:none;stroke:#000000" />
  </g>
  <g
     class="edge"
     id="edge22"
     transform="translate(4,786)">
    <title
       id="title2861">c6-&gt;c6</title>
    <path
       id="path2863"
       d="M 243,-208 C 251,-210 261,-209 261,-205 C 261,-201 251,-200 243,-202"
       style="fill:none;stroke:none" />
    <text
       id="text2865"
       style="font-size:14px;text-anchor:middle;font-family:Times New Roman"
       y="-221"
       x="239">geometric lattice</text>
  </g>
  <g
     class="edge"
     id="edge24"
     transform="translate(4,786)">
    <title
       id="title2868">c6-&gt;c6</title>
    <path
       id="path2870"
       d="M 242,-209 C 258,-215 279,-213 279,-205 C 279,-197 258,-195 242,-201"
       style="fill:none;stroke:none" />
    <text
       id="text2872"
       style="font-size:14px;text-anchor:middle;font-family:Times New Roman"
       y="-184"
       x="239">III; 4</text>
  </g>
  <g
     class="node"
     id="node20"
     transform="translate(4,786)">
    <title
       id="title2875">c7</title>
    <ellipse
       sodipodi:ry="9"
       sodipodi:rx="9"
       sodipodi:cy="-313"
       sodipodi:cx="196"
       id="ellipse2877"
       ry="9"
       rx="9"
       cy="-313"
       cx="196"
       style="fill:#d3d3d3;stroke:#000000" />
  </g>
  <g
     class="edge"
     id="edge66"
     transform="translate(4,786)">
    <title
       id="title2880">c7-&gt;c2</title>
    <path
       id="path2882"
       d="M 203,-307 C 223,-287 281,-231 301,-212"
       style="fill:none;stroke:#000000" />
  </g>
  <g
     class="edge"
     id="edge68"
     transform="translate(4,786)">
    <title
       id="title2885">c7-&gt;c6</title>
    <path
       id="path2887"
       d="M 199,-304 C 206,-283 224,-234 231,-214"
       style="fill:none;stroke:#000000" />
  </g>
  <g
     class="node"
     id="node21"
     transform="translate(4,786)">
    <title
       id="title2890">c8</title>
    <ellipse
       sodipodi:ry="9"
       sodipodi:rx="9"
       sodipodi:cy="-497"
       sodipodi:cx="240"
       id="ellipse2892"
       ry="9"
       rx="9"
       cy="-497"
       cx="240"
       style="fill:#d3d3d3;stroke:#000000" />
  </g>
  <g
     class="edge"
     id="edge70"
     transform="translate(4,786)">
    <title
       id="title2895">c8-&gt;c6</title>
    <path
       id="path2897"
       d="M 239,-488 C 237,-471 234,-435 234,-405 C 234,-405 234,-405 234,-313 C 234,-276 234,-233 234,-214"
       style="fill:none;stroke:#000000" />
  </g>
  <g
     class="edge"
     id="edge26"
     transform="translate(4,786)">
    <title
       id="title2900">c8-&gt;c8</title>
    <path
       id="path2902"
       d="M 247,-503 C 256,-507 267,-506 267,-497 C 267,-488 256,-487 247,-491"
       style="fill:none;stroke:none" />
    <text
       id="text2904"
       style="font-size:14px;text-anchor:middle;font-family:Times New Roman"
       y="-475"
       x="243">8</text>
  </g>
  <g
     class="node"
     id="node23"
     transform="translate(4,786)">
    <title
       id="title2907">c9</title>
    <ellipse
       sodipodi:ry="9"
       sodipodi:rx="9"
       sodipodi:cy="-405"
       sodipodi:cx="122"
       id="ellipse2909"
       ry="9"
       rx="9"
       cy="-405"
       cx="122"
       style="fill:#d3d3d3;stroke:#000000" />
  </g>
  <g
     class="edge"
     id="edge72"
     transform="translate(4,786)">
    <title
       id="title2912">c9-&gt;c7</title>
    <path
       id="path2914"
       d="M 128,-398 C 141,-381 176,-337 190,-320"
       style="fill:none;stroke:#000000" />
  </g>
  <g
     class="edge"
     id="edge28"
     transform="translate(-47.460534,786)">
    <title
       id="title2917">c9-&gt;c9</title>
    <path
       id="path2919"
       d="M 131,-408 C 139,-410 149,-409 149,-405 C 149,-401 139,-400 131,-402"
       style="fill:none;stroke:none" />
    <text
       id="text2921"
       style="font-size:14px;text-anchor:middle;font-family:Times New Roman"
       y="-421"
       x="127">relatively complemented</text>
  </g>
  <g
     class="edge"
     id="edge30"
     transform="translate(4,786)">
    <title
       id="title2924">c9-&gt;c9</title>
    <path
       id="path2926"
       d="M 130,-409 C 146,-415 167,-413 167,-405 C 167,-397 146,-395 130,-401"
       style="fill:none;stroke:none" />
    <text
       id="text2928"
       style="font-size:14px;text-anchor:middle;font-family:Times New Roman"
       y="-384"
       x="127">3</text>
  </g>
  <g
     class="node"
     id="node26"
     transform="translate(4,786)">
    <title
       id="title2931">c10</title>
    <ellipse
       sodipodi:ry="9"
       sodipodi:rx="9"
       sodipodi:cy="-589"
       sodipodi:cx="300"
       id="ellipse2933"
       ry="9"
       rx="9"
       cy="-589"
       cx="300"
       style="fill:#d3d3d3;stroke:#000000" />
  </g>
  <g
     class="edge"
     id="edge74"
     transform="translate(4,786)">
    <title
       id="title2936">c10-&gt;c5</title>
    <path
       id="path2938"
       d="M 307,-583 C 325,-566 373,-520 391,-503"
       style="fill:none;stroke:#000000" />
  </g>
  <g
     class="edge"
     id="edge76"
     transform="translate(4,786)">
    <title
       id="title2941">c10-&gt;c8</title>
    <path
       id="path2943"
       d="M 295,-581 C 283,-564 256,-522 245,-505"
       style="fill:none;stroke:#000000" />
  </g>
  <g
     class="edge"
     id="edge32"
     transform="translate(4,786)">
    <title
       id="title2946">c10-&gt;c10</title>
    <path
       id="path2948"
       d="M 307,-595 C 316,-599 327,-598 327,-589 C 327,-580 316,-579 307,-583"
       style="fill:none;stroke:none" />
    <text
       id="text2950"
       style="font-size:14px;text-anchor:middle;font-family:Times New Roman"
       y="-607"
       x="300">semimodular</text>
  </g>
  <g
     class="node"
     id="node28"
     transform="translate(4,786)">
    <title
       id="title2953">c11</title>
    <ellipse
       sodipodi:ry="9"
       sodipodi:rx="9"
       sodipodi:cy="-313"
       sodipodi:cx="290"
       id="ellipse2955"
       ry="9"
       rx="9"
       cy="-313"
       cx="290"
       style="fill:#d3d3d3;stroke:#000000" />
  </g>
  <g
     class="edge"
     id="edge78"
     transform="translate(4,786)">
    <title
       id="title2958">c11-&gt;c2</title>
    <path
       id="path2960"
       d="M 292,-304 C 295,-284 303,-234 307,-214"
       style="fill:none;stroke:#000000" />
  </g>
  <g
     class="edge"
     id="edge34"
     transform="translate(4,786)">
    <title
       id="title2963">c11-&gt;c11</title>
    <path
       id="path2965"
       d="M 299,-316 C 307,-318 317,-317 317,-313 C 317,-309 307,-308 299,-310"
       style="fill:none;stroke:none" />
    <text
       id="text2967"
       style="font-size:14px;text-anchor:middle;font-family:Times New Roman"
       y="-329"
       x="295">CDS lattice</text>
  </g>
  <g
     class="edge"
     id="edge36"
     transform="translate(4,786)">
    <title
       id="title2970">c11-&gt;c11</title>
    <path
       id="path2972"
       d="M 298,-317 C 314,-323 335,-321 335,-313 C 335,-305 314,-303 298,-309"
       style="fill:none;stroke:none" />
    <text
       id="text2974"
       style="font-size:14px;text-anchor:middle;font-family:Times New Roman"
       y="-292"
       x="295">II; 9</text>
  </g>
  <g
     class="node"
     id="node31"
     transform="translate(4,786)">
    <title
       id="title2977">c12</title>
    <ellipse
       sodipodi:ry="9"
       sodipodi:rx="9"
       sodipodi:cy="-497"
       sodipodi:cx="316"
       id="ellipse2979"
       ry="9"
       rx="9"
       cy="-497"
       cx="316"
       style="fill:#d3d3d3;stroke:#000000" />
  </g>
  <g
     class="edge"
     id="edge80"
     transform="translate(4,786)">
    <title
       id="title2982">c12-&gt;c11</title>
    <path
       id="path2984"
       d="M 315,-488 C 310,-457 296,-354 291,-322"
       style="fill:none;stroke:#000000" />
  </g>
  <g
     class="edge"
     id="edge38"
     transform="translate(4,786)">
    <title
       id="title2987">c12-&gt;c12</title>
    <path
       id="path2989"
       d="M 323,-503 C 332,-507 343,-506 343,-497 C 343,-488 332,-487 323,-491"
       style="fill:none;stroke:none" />
    <text
       id="text2991"
       style="font-size:14px;text-anchor:middle;font-family:Times New Roman"
       y="-475"
       x="319">5</text>
  </g>
  <g
     class="node"
     id="node33"
     transform="translate(4,786)">
    <title
       id="title2994">c13</title>
    <ellipse
       sodipodi:ry="9"
       sodipodi:rx="9"
       sodipodi:cy="-589"
       sodipodi:cx="354"
       id="ellipse2996"
       ry="9"
       rx="9"
       cy="-589"
       cx="354"
       style="fill:#d3d3d3;stroke:#000000" />
  </g>
  <g
     class="edge"
     id="edge82"
     transform="translate(4,786)">
    <title
       id="title2999">c13-&gt;c5</title>
    <path
       id="path3001"
       d="M 362,-585 C 374,-578 397,-563 406,-544 C 411,-531 406,-515 402,-505"
       style="fill:none;stroke:#000000" />
  </g>
  <g
     class="edge"
     id="edge84"
     transform="translate(4,786)">
    <title
       id="title3004">c13-&gt;c12</title>
    <path
       id="path3006"
       d="M 350,-581 C 343,-563 327,-523 319,-506"
       style="fill:none;stroke:#000000" />
  </g>
  <g
     class="edge"
     id="edge40"
     transform="translate(61.8931,787.28651)">
    <title
       id="title3009">c13-&gt;c13</title>
    <path
       id="path3011"
       d="M 361,-595 C 370,-599 381,-598 381,-589 C 381,-580 370,-579 361,-583"
       style="fill:none;stroke:none" />
    <text
       id="text3013"
       style="font-size:14px;text-anchor:middle;font-family:Times New Roman"
       y="-607"
       x="354">dually semimodular</text>
  </g>
  <g
     class="node"
     id="node35"
     transform="translate(4,786)">
    <title
       id="title3016">c14</title>
    <ellipse
       sodipodi:ry="9"
       sodipodi:rx="9"
       sodipodi:cy="-405"
       sodipodi:cx="196"
       id="ellipse3018"
       ry="9"
       rx="9"
       cy="-405"
       cx="196"
       style="fill:#d3d3d3;stroke:#000000" />
  </g>
  <g
     class="edge"
     id="edge86"
     transform="translate(4,786)">
    <title
       id="title3021">c14-&gt;c7</title>
    <path
       id="path3023"
       d="M 196,-396 C 196,-379 196,-340 196,-322"
       style="fill:none;stroke:#000000" />
  </g>
  <g
     class="edge"
     id="edge88"
     transform="translate(4,786)">
    <title
       id="title3026">c14-&gt;c11</title>
    <path
       id="path3028"
       d="M 202,-399 C 220,-382 266,-336 284,-319"
       style="fill:none;stroke:#000000" />
  </g>
  <g
     class="node"
     id="node36"
     transform="translate(4,786)">
    <title
       id="title3031">c15</title>
    <ellipse
       sodipodi:ry="9"
       sodipodi:rx="9"
       sodipodi:cy="-497"
       sodipodi:cx="177"
       id="ellipse3033"
       ry="9"
       rx="9"
       cy="-497"
       cx="177"
       style="fill:#d3d3d3;stroke:#000000" />
  </g>
  <g
     class="edge"
     id="edge90"
     transform="translate(4,786)">
    <title
       id="title3036">c15-&gt;c14</title>
    <path
       id="path3038"
       d="M 179,-488 C 183,-470 191,-431 194,-414"
       style="fill:none;stroke:#000000" />
  </g>
  <g
     class="edge"
     id="edge42"
     transform="translate(4,786)">
    <title
       id="title3041">c15-&gt;c15</title>
    <path
       id="path3043"
       d="M 184,-503 C 193,-507 204,-506 204,-497 C 204,-488 193,-487 184,-491"
       style="fill:none;stroke:none" />
    <text
       id="text3045"
       style="font-size:14px;text-anchor:middle;font-family:Times New Roman"
       y="-475"
       x="180">7</text>
  </g>
  <g
     class="node"
     id="node38"
     transform="translate(4,786)">
    <title
       id="title3048">c16</title>
    <ellipse
       sodipodi:ry="9"
       sodipodi:rx="9"
       sodipodi:cy="-589"
       sodipodi:cx="183"
       id="ellipse3050"
       ry="9"
       rx="9"
       cy="-589"
       cx="183"
       style="fill:#d3d3d3;stroke:#000000" />
  </g>
  <g
     class="edge"
     id="edge92"
     transform="translate(4,786)">
    <title
       id="title3053">c16-&gt;c8</title>
    <path
       id="path3055"
       d="M 188,-581 C 199,-564 225,-522 235,-505"
       style="fill:none;stroke:#000000" />
  </g>
  <g
     class="edge"
     id="edge94"
     transform="translate(4,786)">
    <title
       id="title3058">c16-&gt;c15</title>
    <path
       id="path3060"
       d="M 182,-580 C 181,-563 179,-524 178,-506"
       style="fill:none;stroke:#000000" />
  </g>
  <g
     class="node"
     id="node39"
     transform="translate(4,786)">
    <title
       id="title3063">c17</title>
    <ellipse
       sodipodi:ry="9"
       sodipodi:rx="9"
       sodipodi:cy="-589"
       sodipodi:cx="252"
       id="ellipse3065"
       ry="9"
       rx="9"
       cy="-589"
       cx="252"
       style="fill:#d3d3d3;stroke:#000000" />
  </g>
  <g
     class="edge"
     id="edge96"
     transform="translate(4,786)">
    <title
       id="title3068">c17-&gt;c12</title>
    <path
       id="path3070"
       d="M 257,-581 C 270,-564 298,-522 311,-505"
       style="fill:none;stroke:#000000" />
  </g>
  <g
     class="edge"
     id="edge98"
     transform="translate(4,786)">
    <title
       id="title3073">c17-&gt;c15</title>
    <path
       id="path3075"
       d="M 246,-582 C 232,-565 197,-521 183,-504"
       style="fill:none;stroke:#000000" />
  </g>
  <g
     class="node"
     id="node40"
     transform="translate(4,786)">
    <title
       id="title3078">c18</title>
    <ellipse
       sodipodi:ry="9"
       sodipodi:rx="9"
       sodipodi:cy="-497"
       sodipodi:cx="120"
       id="ellipse3080"
       ry="9"
       rx="9"
       cy="-497"
       cx="120"
       style="fill:#d3d3d3;stroke:#000000" />
  </g>
  <g
     class="edge"
     id="edge100"
     transform="translate(4,786)">
    <title
       id="title3083">c18-&gt;c9</title>
    <path
       id="path3085"
       d="M 120,-488 C 121,-471 122,-432 122,-414"
       style="fill:none;stroke:#000000" />
  </g>
  <g
     class="edge"
     id="edge102"
     transform="translate(4,786)">
    <title
       id="title3088">c18-&gt;c14</title>
    <path
       id="path3090"
       d="M 126,-490 C 140,-473 176,-429 190,-412"
       style="fill:none;stroke:#000000" />
  </g>
  <g
     class="edge"
     id="edge44"
     transform="translate(-47.460534,786)">
    <title
       id="title3093">c18-&gt;c18</title>
    <path
       id="path3095"
       d="M 127,-503 C 136,-507 147,-506 147,-497 C 147,-488 136,-487 127,-491"
       style="fill:none;stroke:none" />
    <text
       id="text3097"
       style="font-size:14px;text-anchor:middle;font-family:Times New Roman"
       y="-515"
       x="120">sectionally complemented</text>
  </g>
  <g
     class="node"
     id="node42"
     transform="translate(4,786)">
    <title
       id="title3100">c19</title>
    <ellipse
       sodipodi:ry="9"
       sodipodi:rx="9"
       sodipodi:cy="-589"
       sodipodi:cx="107"
       id="ellipse3102"
       ry="9"
       rx="9"
       cy="-589"
       cx="107"
       style="fill:#d3d3d3;stroke:#000000" />
  </g>
  <g
     class="edge"
     id="edge104"
     transform="translate(4,786)">
    <title
       id="title3105">c19-&gt;c15</title>
    <path
       id="path3107"
       d="M 112,-582 C 125,-565 158,-521 172,-504"
       style="fill:none;stroke:#000000" />
  </g>
  <g
     class="edge"
     id="edge106"
     transform="translate(4,786)">
    <title
       id="title3110">c19-&gt;c18</title>
    <path
       id="path3112"
       d="M 108,-580 C 109,-570 111,-555 112,-542 C 114,-529 116,-515 118,-506"
       style="fill:none;stroke:#000000" />
  </g>
  <g
     class="node"
     id="node43"
     transform="translate(4,786)">
    <title
       id="title3115">c20</title>
    <ellipse
       sodipodi:ry="9"
       sodipodi:rx="9"
       sodipodi:cy="-681"
       sodipodi:cx="164"
       id="ellipse3117"
       ry="9"
       rx="9"
       cy="-681"
       cx="164"
       style="fill:#d3d3d3;stroke:#000000" />
  </g>
  <g
     class="edge"
     id="edge108"
     transform="translate(4,786)">
    <title
       id="title3120">c20-&gt;c16</title>
    <path
       id="path3122"
       d="M 166,-672 C 170,-654 178,-615 181,-598"
       style="fill:none;stroke:#000000" />
  </g>
  <g
     class="edge"
     id="edge110"
     transform="translate(4,786)">
    <title
       id="title3125">c20-&gt;c19</title>
    <path
       id="path3127"
       d="M 156,-676 C 144,-670 123,-655 112,-636 C 106,-624 106,-608 106,-598"
       style="fill:none;stroke:#000000" />
  </g>
  <g
     class="edge"
     id="edge46"
     transform="translate(-17.870727,786)">
    <title
       id="title3130">c20-&gt;c20</title>
    <path
       id="path3132"
       d="M 171,-687 C 180,-691 191,-690 191,-681 C 191,-672 180,-671 171,-675"
       style="fill:none;stroke:none" />
    <text
       id="text3134"
       style="font-size:14px;text-anchor:middle;font-family:Times New Roman"
       y="-699"
       x="164">complemented</text>
  </g>
  <g
     class="node"
     id="node45"
     transform="translate(4,786)">
    <title
       id="title3137">c21</title>
    <ellipse
       sodipodi:ry="9"
       sodipodi:rx="9"
       sodipodi:cy="-681"
       sodipodi:cx="221"
       id="ellipse3139"
       ry="9"
       rx="9"
       cy="-681"
       cx="221"
       style="fill:#d3d3d3;stroke:#000000" />
  </g>
  <g
     class="edge"
     id="edge112"
     transform="translate(4,786)">
    <title
       id="title3142">c21-&gt;c17</title>
    <path
       id="path3144"
       d="M 224,-672 C 230,-654 243,-615 249,-598"
       style="fill:none;stroke:#000000" />
  </g>
  <g
     class="edge"
     id="edge114"
     transform="translate(4,786)">
    <title
       id="title3147">c21-&gt;c19</title>
    <path
       id="path3149"
       d="M 214,-675 C 193,-659 135,-611 114,-595"
       style="fill:none;stroke:#000000" />
  </g>
  <g
     class="edge"
     id="edge48"
     transform="translate(4,786)">
    <title
       id="title3152">c21-&gt;c21</title>
    <path
       id="path3154"
       d="M 228,-687 C 237,-691 248,-690 248,-681 C 248,-672 237,-671 228,-675"
       style="fill:none;stroke:none" />
    <text
       id="text3156"
       style="font-size:14px;text-anchor:middle;font-family:Times New Roman"
       y="-699"
       x="221">atomistic</text>
  </g>
  <g
     class="node"
     id="node47"
     transform="translate(4,786)">
    <title
       id="title3159">c22</title>
    <ellipse
       sodipodi:ry="9"
       sodipodi:rx="9"
       sodipodi:cy="-681"
       sodipodi:cx="278"
       id="ellipse3161"
       ry="9"
       rx="9"
       cy="-681"
       cx="278"
       style="fill:#d3d3d3;stroke:#000000" />
  </g>
  <g
     class="edge"
     id="edge116"
     transform="translate(4,786)">
    <title
       id="title3164">c22-&gt;c10</title>
    <path
       id="path3166"
       d="M 281,-672 C 284,-663 289,-649 292,-636 C 295,-623 297,-607 299,-598"
       style="fill:none;stroke:#000000" />
  </g>
  <g
     class="edge"
     id="edge118"
     transform="translate(4,786)">
    <title
       id="title3169">c22-&gt;c13</title>
    <path
       id="path3171"
       d="M 284,-674 C 298,-657 334,-613 348,-596"
       style="fill:none;stroke:#000000" />
  </g>
  <g
     class="edge"
     id="edge120"
     transform="translate(4,786)">
    <title
       id="title3174">c22-&gt;c16</title>
    <path
       id="path3176"
       d="M 271,-675 C 254,-658 207,-612 190,-595"
       style="fill:none;stroke:#000000" />
  </g>
  <g
     class="edge"
     id="edge122"
     transform="translate(4,786)">
    <title
       id="title3179">c22-&gt;c17</title>
    <path
       id="path3181"
       d="M 276,-672 C 271,-654 260,-615 255,-598"
       style="fill:none;stroke:#000000" />
  </g>
  <g
     class="edge"
     id="edge50"
     transform="translate(4,786)">
    <title
       id="title3184">c22-&gt;c22</title>
    <path
       id="path3186"
       d="M 285,-687 C 294,-691 305,-690 305,-681 C 305,-672 294,-671 285,-675"
       style="fill:none;stroke:none" />
    <text
       id="text3188"
       style="font-size:14px;text-anchor:middle;font-family:Times New Roman"
       y="-699"
       x="278">graded</text>
  </g>
  <g
     class="node"
     id="node49"
     transform="translate(4,786)">
    <title
       id="title3191">c23</title>
    <ellipse
       sodipodi:ry="9"
       sodipodi:rx="9"
       sodipodi:cy="-773"
       sodipodi:cx="221"
       id="ellipse3193"
       ry="9"
       rx="9"
       cy="-773"
       cx="221"
       style="fill:#d3d3d3;stroke:#000000" />
  </g>
  <g
     class="edge"
     id="edge124"
     transform="translate(4,786)">
    <title
       id="title3196">c23-&gt;c20</title>
    <path
       id="path3198"
       d="M 216,-765 C 205,-748 179,-706 169,-689"
       style="fill:none;stroke:#000000" />
  </g>
  <g
     class="edge"
     id="edge126"
     transform="translate(4,786)">
    <title
       id="title3201">c23-&gt;c21</title>
    <path
       id="path3203"
       d="M 221,-764 C 221,-747 221,-708 221,-690"
       style="fill:none;stroke:#000000" />
  </g>
  <g
     class="edge"
     id="edge128"
     transform="translate(4,786)">
    <title
       id="title3206">c23-&gt;c22</title>
    <path
       id="path3208"
       d="M 226,-765 C 237,-748 263,-706 273,-689"
       style="fill:none;stroke:#000000" />
  </g>
</svg>
