<?xml version="1.0" encoding="UTF-8" standalone="no"?>
<!-- Generated by Graphviz version 2.14.1 (Fri Nov  9 08:19:38 GMT 2007)
     For user: (upriss) Uta Priss -->
<!-- Title: Lat Pages: 1 -->
<svg
   xmlns:dc="http://purl.org/dc/elements/1.1/"
   xmlns:cc="http://web.resource.org/cc/"
   xmlns:rdf="http://www.w3.org/1999/02/22-rdf-syntax-ns#"
   xmlns:svg="http://www.w3.org/2000/svg"
   xmlns="http://www.w3.org/2000/svg"
   xmlns:sodipodi="http://sodipodi.sourceforge.net/DTD/sodipodi-0.dtd"
   xmlns:inkscape="http://www.inkscape.org/namespaces/inkscape"
   width="487pt"
   height="541pt"
   viewBox="0.00 0.00 487.00 541.00"
   id="svg2597"
   sodipodi:version="0.32"
   inkscape:version="0.45.1"
   sodipodi:docname="liveinwater.svg"
   sodipodi:docbase="/Users/upriss/Sites/public/fca/examples"
   inkscape:output_extension="org.inkscape.output.svg.inkscape">
  <metadata
     id="metadata2981">
    <rdf:RDF>
      <cc:Work
         rdf:about="">
        <dc:format>image/svg+xml</dc:format>
        <dc:type
           rdf:resource="http://purl.org/dc/dcmitype/StillImage" />
      </cc:Work>
    </rdf:RDF>
  </metadata>
  <defs
     id="defs2979">
    <title
       id="title2600">Lat</title>
  </defs>
  <sodipodi:namedview
     inkscape:window-height="582"
     inkscape:window-width="697"
     inkscape:pageshadow="2"
     inkscape:pageopacity="0.0"
     guidetolerance="10.0"
     gridtolerance="10.0"
     objecttolerance="10.0"
     borderopacity="1.0"
     bordercolor="#666666"
     pagecolor="#ffffff"
     id="base"
     inkscape:zoom="0.55896488"
     inkscape:cx="304.375"
     inkscape:cy="338.125"
     inkscape:window-x="24"
     inkscape:window-y="42"
     inkscape:current-layer="svg2597" />
  <polygon
     id="polygon2602"
     points="-4,4 -4,-537 483,-537 483,4 -4,4 "
     style="fill:#ffffff;stroke:#ffffff"
     transform="translate(4,537)" />
  <g
     class="node"
     id="node1"
     transform="translate(4,537)">
    <title
       id="title2605">c0</title>
    <ellipse
       sodipodi:ry="9"
       sodipodi:rx="9"
       sodipodi:cy="-9"
       sodipodi:cx="214"
       id="ellipse2607"
       ry="9"
       rx="9"
       cy="-9"
       cx="214"
       style="fill:#d3d3d3;stroke:#000000" />
  </g>
  <g
     class="node"
     id="node2"
     transform="translate(4,537)">
    <title
       id="title2610">c1</title>
    <ellipse
       sodipodi:ry="9"
       sodipodi:rx="9"
       sodipodi:cy="-155"
       sodipodi:cx="50"
       id="ellipse2612"
       ry="9"
       rx="9"
       cy="-155"
       cx="50"
       style="fill:#d3d3d3;stroke:#000000" />
  </g>
  <g
     class="edge"
     id="edge36"
     transform="translate(4,537)">
    <title
       id="title2615">c1-&gt;c0</title>
    <path
       id="path2617"
       d="M 57,-149 C 84,-125 180,-39 207,-15"
       style="fill:none;stroke:#000000" />
  </g>
  <g
     class="edge"
     id="edge2"
     transform="translate(4,537)">
    <title
       id="title2620">c1-&gt;c1</title>
    <path
       id="path2622"
       d="M 59,-159 C 67,-161 77,-159 77,-155 C 77,-151 67,-149 59,-151"
       style="fill:none;stroke:none" />
    <text
       id="text2624"
       style="font-size:14px;text-anchor:middle;font-family:Times New Roman"
       y="-172"
       x="55">dicotyledon</text>
  </g>
  <g
     class="edge"
     id="edge4"
     transform="translate(4,537)">
    <title
       id="title2627">c1-&gt;c1</title>
    <path
       id="path2629"
       d="M 58,-160 C 74,-167 95,-165 95,-155 C 95,-145 74,-143 58,-150"
       style="fill:none;stroke:none" />
    <text
       id="text2631"
       style="font-size:14px;text-anchor:middle;font-family:Times New Roman"
       y="-134"
       x="55">bean</text>
  </g>
  <g
     class="node"
     id="node5"
     transform="translate(4,537)">
    <title
       id="title2634">c2</title>
    <ellipse
       sodipodi:ry="9"
       sodipodi:rx="9"
       sodipodi:cy="-101"
       sodipodi:cx="179"
       id="ellipse2636"
       ry="9"
       rx="9"
       cy="-101"
       cx="179"
       style="fill:#d3d3d3;stroke:#000000" />
  </g>
  <g
     class="edge"
     id="edge38"
     transform="translate(4,537)">
    <title
       id="title2639">c2-&gt;c0</title>
    <path
       id="path2641"
       d="M 182,-93 C 189,-75 204,-35 211,-18"
       style="fill:none;stroke:#000000" />
  </g>
  <g
     class="edge"
     id="edge6"
     transform="translate(4,537)">
    <title
       id="title2644">c2-&gt;c2</title>
    <path
       id="path2646"
       d="M 186,-107 C 195,-111 206,-110 206,-101 C 206,-92 195,-91 186,-95"
       style="fill:none;stroke:none" />
    <text
       id="text2648"
       style="font-size:14px;text-anchor:middle;font-family:Times New Roman"
       y="-79"
       x="182">reed</text>
  </g>
  <g
     class="node"
     id="node7"
     transform="translate(4,537)">
    <title
       id="title2651">c3</title>
    <ellipse
       sodipodi:ry="9"
       sodipodi:rx="9"
       sodipodi:cy="-209"
       sodipodi:cx="114"
       id="ellipse2653"
       ry="9"
       rx="9"
       cy="-209"
       cx="114"
       style="fill:#d3d3d3;stroke:#000000" />
  </g>
  <g
     class="edge"
     id="edge40"
     transform="translate(4,537)">
    <title
       id="title2656">c3-&gt;c2</title>
    <path
       id="path2658"
       d="M 119,-201 C 131,-181 162,-129 174,-109"
       style="fill:none;stroke:#000000" />
  </g>
  <g
     class="edge"
     id="edge8"
     transform="translate(4,537)">
    <title
       id="title2661">c3-&gt;c3</title>
    <path
       id="path2663"
       d="M 121,-215 C 130,-221 141,-219 141,-209 C 141,-199 130,-197 121,-203"
       style="fill:none;stroke:none" />
    <text
       id="text2665"
       style="font-size:14px;text-anchor:middle;font-family:Times New Roman"
       y="-187"
       x="116">corn</text>
  </g>
  <g
     class="node"
     id="node9"
     transform="translate(4,537)">
    <title
       id="title2668">c4</title>
    <ellipse
       sodipodi:ry="9"
       sodipodi:rx="9"
       sodipodi:cy="-317"
       sodipodi:cx="84"
       id="ellipse2670"
       ry="9"
       rx="9"
       cy="-317"
       cx="84"
       style="fill:#d3d3d3;stroke:#000000" />
  </g>
  <g
     class="edge"
     id="edge42"
     transform="translate(4,537)">
    <title
       id="title2673">c4-&gt;c1</title>
    <path
       id="path2675"
       d="M 82,-308 C 76,-280 58,-193 52,-164"
       style="fill:none;stroke:#000000" />
  </g>
  <g
     class="edge"
     id="edge44"
     transform="translate(4,537)">
    <title
       id="title2678">c4-&gt;c3</title>
    <path
       id="path2680"
       d="M 86,-308 C 92,-288 106,-238 112,-218"
       style="fill:none;stroke:#000000" />
  </g>
  <g
     class="node"
     id="node10"
     transform="translate(4,537)">
    <title
       id="title2683">c5</title>
    <ellipse
       sodipodi:ry="9"
       sodipodi:rx="9"
       sodipodi:cy="-209"
       sodipodi:cx="168"
       id="ellipse2685"
       ry="9"
       rx="9"
       cy="-209"
       cx="168"
       style="fill:#d3d3d3;stroke:#000000" />
  </g>
  <g
     class="edge"
     id="edge46"
     transform="translate(4,537)">
    <title
       id="title2688">c5-&gt;c2</title>
    <path
       id="path2690"
       d="M 169,-200 C 171,-180 176,-131 178,-110"
       style="fill:none;stroke:#000000" />
  </g>
  <g
     class="edge"
     id="edge10"
     transform="translate(4,537)">
    <title
       id="title2693">c5-&gt;c5</title>
    <path
       id="path2695"
       d="M 175,-215 C 184,-221 195,-219 195,-209 C 195,-199 184,-197 175,-203"
       style="fill:none;stroke:none" />
    <text
       id="text2697"
       style="font-size:14px;text-anchor:middle;font-family:Times New Roman"
       y="-187"
       x="170">water weeds</text>
  </g>
  <g
     class="node"
     id="node12"
     transform="translate(4,537)">
    <title
       id="title2700">c6</title>
    <ellipse
       sodipodi:ry="9"
       sodipodi:rx="9"
       sodipodi:cy="-317"
       sodipodi:cx="143"
       id="ellipse2702"
       ry="9"
       rx="9"
       cy="-317"
       cx="143"
       style="fill:#d3d3d3;stroke:#000000" />
  </g>
  <g
     class="edge"
     id="edge48"
     transform="translate(4,537)">
    <title
       id="title2705">c6-&gt;c3</title>
    <path
       id="path2707"
       d="M 141,-308 C 136,-288 122,-238 116,-218"
       style="fill:none;stroke:#000000" />
  </g>
  <g
     class="edge"
     id="edge50"
     transform="translate(4,537)">
    <title
       id="title2710">c6-&gt;c5</title>
    <path
       id="path2712"
       d="M 145,-308 C 150,-288 161,-238 166,-218"
       style="fill:none;stroke:#000000" />
  </g>
  <g
     class="edge"
     id="edge12"
     transform="translate(4,537)">
    <title
       id="title2715">c6-&gt;c6</title>
    <path
       id="path2717"
       d="M 150,-323 C 159,-327 170,-326 170,-317 C 170,-308 159,-307 150,-311"
       style="fill:none;stroke:none" />
    <text
       id="text2719"
       style="font-size:14px;text-anchor:middle;font-family:Times New Roman"
       y="-335"
       x="143">monocotyledon</text>
  </g>
  <g
     class="node"
     id="node14"
     transform="translate(4,537)">
    <title
       id="title2722">c7</title>
    <ellipse
       sodipodi:ry="9"
       sodipodi:rx="9"
       sodipodi:cy="-409"
       sodipodi:cx="160"
       id="ellipse2724"
       ry="9"
       rx="9"
       cy="-409"
       cx="160"
       style="fill:#d3d3d3;stroke:#000000" />
  </g>
  <g
     class="edge"
     id="edge52"
     transform="translate(4,537)">
    <title
       id="title2727">c7-&gt;c4</title>
    <path
       id="path2729"
       d="M 153,-404 C 142,-396 121,-381 108,-364 C 99,-352 91,-335 87,-325"
       style="fill:none;stroke:#000000" />
  </g>
  <g
     class="edge"
     id="edge54"
     transform="translate(4,537)">
    <title
       id="title2732">c7-&gt;c6</title>
    <path
       id="path2734"
       d="M 158,-400 C 155,-382 148,-343 145,-326"
       style="fill:none;stroke:#000000" />
  </g>
  <g
     class="edge"
     id="edge14"
     transform="translate(-28.917989,537)">
    <title
       id="title2737">c7-&gt;c7</title>
    <path
       id="path2739"
       d="M 167,-415 C 176,-419 187,-418 187,-409 C 187,-400 176,-399 167,-403"
       style="fill:none;stroke:none" />
    <text
       id="text2741"
       style="font-size:14px;text-anchor:middle;font-family:Times New Roman"
       y="-427"
       x="160">needs chlorophyll</text>
  </g>
  <g
     class="node"
     id="node16"
     transform="translate(4,537)">
    <title
       id="title2744">c8</title>
    <ellipse
       sodipodi:ry="9"
       sodipodi:rx="9"
       sodipodi:cy="-101"
       sodipodi:cx="243"
       id="ellipse2746"
       ry="9"
       rx="9"
       cy="-101"
       cx="243"
       style="fill:#d3d3d3;stroke:#000000" />
  </g>
  <g
     class="edge"
     id="edge56"
     transform="translate(4,537)">
    <title
       id="title2749">c8-&gt;c0</title>
    <path
       id="path2751"
       d="M 240,-92 C 235,-74 222,-35 217,-18"
       style="fill:none;stroke:#000000" />
  </g>
  <g
     class="edge"
     id="edge16"
     transform="translate(4,537)">
    <title
       id="title2754">c8-&gt;c8</title>
    <path
       id="path2756"
       d="M 252,-104 C 260,-106 270,-105 270,-101 C 270,-97 260,-96 252,-98"
       style="fill:none;stroke:none" />
    <text
       id="text2758"
       style="font-size:14px;text-anchor:middle;font-family:Times New Roman"
       y="-117"
       x="248">breast feeds</text>
  </g>
  <g
     class="edge"
     id="edge18"
     transform="translate(4,537)">
    <title
       id="title2761">c8-&gt;c8</title>
    <path
       id="path2763"
       d="M 251,-105 C 267,-111 288,-109 288,-101 C 288,-93 267,-91 251,-97"
       style="fill:none;stroke:none" />
    <text
       id="text2765"
       style="font-size:14px;text-anchor:middle;font-family:Times New Roman"
       y="-80"
       x="248">dog</text>
  </g>
  <g
     class="node"
     id="node19"
     transform="translate(4,537)">
    <title
       id="title2768">c9</title>
    <ellipse
       sodipodi:ry="9"
       sodipodi:rx="9"
       sodipodi:cy="-101"
       sodipodi:cx="316"
       id="ellipse2770"
       ry="9"
       rx="9"
       cy="-101"
       cx="316"
       style="fill:#d3d3d3;stroke:#000000" />
  </g>
  <g
     class="edge"
     id="edge58"
     transform="translate(4,537)">
    <title
       id="title2773">c9-&gt;c0</title>
    <path
       id="path2775"
       d="M 309,-95 C 291,-78 240,-32 221,-15"
       style="fill:none;stroke:#000000" />
  </g>
  <g
     class="edge"
     id="edge20"
     transform="translate(4,537)">
    <title
       id="title2778">c9-&gt;c9</title>
    <path
       id="path2780"
       d="M 323,-107 C 332,-111 343,-110 343,-101 C 343,-92 332,-91 323,-95"
       style="fill:none;stroke:none" />
    <text
       id="text2782"
       style="font-size:14px;text-anchor:middle;font-family:Times New Roman"
       y="-79"
       x="319">frog</text>
  </g>
  <g
     class="node"
     id="node21"
     transform="translate(4,537)">
    <title
       id="title2785">c10</title>
    <ellipse
       sodipodi:ry="9"
       sodipodi:rx="9"
       sodipodi:cy="-263"
       sodipodi:cx="255"
       id="ellipse2787"
       ry="9"
       rx="9"
       cy="-263"
       cx="255"
       style="fill:#d3d3d3;stroke:#000000" />
  </g>
  <g
     class="edge"
     id="edge60"
     transform="translate(4,537)">
    <title
       id="title2790">c10-&gt;c2</title>
    <path
       id="path2792"
       d="M 251,-255 C 238,-227 196,-138 183,-109"
       style="fill:none;stroke:#000000" />
  </g>
  <g
     class="edge"
     id="edge62"
     transform="translate(4,537)">
    <title
       id="title2795">c10-&gt;c9</title>
    <path
       id="path2797"
       d="M 258,-254 C 269,-226 302,-138 313,-110"
       style="fill:none;stroke:#000000" />
  </g>
  <g
     class="node"
     id="node22"
     transform="translate(4,537)">
    <title
       id="title2800">c11</title>
    <ellipse
       sodipodi:ry="9"
       sodipodi:rx="9"
       sodipodi:cy="-209"
       sodipodi:cx="337"
       id="ellipse2802"
       ry="9"
       rx="9"
       cy="-209"
       cx="337"
       style="fill:#d3d3d3;stroke:#000000" />
  </g>
  <g
     class="edge"
     id="edge64"
     transform="translate(4,537)">
    <title
       id="title2805">c11-&gt;c8</title>
    <path
       id="path2807"
       d="M 331,-202 C 314,-182 266,-127 249,-108"
       style="fill:none;stroke:#000000" />
  </g>
  <g
     class="edge"
     id="edge66"
     transform="translate(4,537)">
    <title
       id="title2810">c11-&gt;c9</title>
    <path
       id="path2812"
       d="M 335,-200 C 331,-180 322,-130 318,-110"
       style="fill:none;stroke:#000000" />
  </g>
  <g
     class="node"
     id="node23"
     transform="translate(4,537)">
    <title
       id="title2815">c12</title>
    <ellipse
       sodipodi:ry="9"
       sodipodi:rx="9"
       sodipodi:cy="-409"
       sodipodi:cx="228"
       id="ellipse2817"
       ry="9"
       rx="9"
       cy="-409"
       cx="228"
       style="fill:#d3d3d3;stroke:#000000" />
  </g>
  <g
     class="edge"
     id="edge68"
     transform="translate(4,537)">
    <title
       id="title2820">c12-&gt;c4</title>
    <path
       id="path2822"
       d="M 220,-404 C 195,-388 117,-338 92,-322"
       style="fill:none;stroke:#000000" />
  </g>
  <g
     class="edge"
     id="edge70"
     transform="translate(4,537)">
    <title
       id="title2825">c12-&gt;c10</title>
    <path
       id="path2827"
       d="M 230,-400 C 235,-374 249,-298 253,-272"
       style="fill:none;stroke:#000000" />
  </g>
  <g
     class="edge"
     id="edge72"
     transform="translate(4,537)">
    <title
       id="title2830">c12-&gt;c11</title>
    <path
       id="path2832"
       d="M 232,-401 C 250,-368 315,-249 333,-217"
       style="fill:none;stroke:#000000" />
  </g>
  <g
     class="edge"
     id="edge22"
     transform="translate(-7.4497354,522.68783)">
    <title
       id="title2835">c12-&gt;c12</title>
    <path
       id="path2837"
       d="M 235,-415 C 244,-419 255,-418 255,-409 C 255,-400 244,-399 235,-403"
       style="fill:none;stroke:none" />
    <text
       id="text2839"
       style="font-size:14px;text-anchor:middle;font-family:Times New Roman"
       y="-427"
       x="228">lives on land</text>
  </g>
  <g
     class="node"
     id="node25"
     transform="translate(4,537)">
    <title
       id="title2842">c13</title>
    <ellipse
       sodipodi:ry="9"
       sodipodi:rx="9"
       sodipodi:cy="-209"
       sodipodi:cx="388"
       id="ellipse2844"
       ry="9"
       rx="9"
       cy="-209"
       cx="388"
       style="fill:#d3d3d3;stroke:#000000" />
  </g>
  <g
     class="edge"
     id="edge74"
     transform="translate(4,537)">
    <title
       id="title2847">c13-&gt;c9</title>
    <path
       id="path2849"
       d="M 383,-201 C 369,-181 334,-128 321,-109"
       style="fill:none;stroke:#000000" />
  </g>
  <g
     class="edge"
     id="edge24"
     transform="translate(4,537)">
    <title
       id="title2852">c13-&gt;c13</title>
    <path
       id="path2854"
       d="M 395,-215 C 404,-221 415,-219 415,-209 C 415,-199 404,-197 395,-203"
       style="fill:none;stroke:none" />
    <text
       id="text2856"
       style="font-size:14px;text-anchor:middle;font-family:Times New Roman"
       y="-187"
       x="390">bream</text>
  </g>
  <g
     class="node"
     id="node27"
     transform="translate(4,537)">
    <title
       id="title2859">c14</title>
    <ellipse
       sodipodi:ry="9"
       sodipodi:rx="9"
       sodipodi:cy="-317"
       sodipodi:cx="350"
       id="ellipse2861"
       ry="9"
       rx="9"
       cy="-317"
       cx="350"
       style="fill:#d3d3d3;stroke:#000000" />
  </g>
  <g
     class="edge"
     id="edge76"
     transform="translate(4,537)">
    <title
       id="title2864">c14-&gt;c11</title>
    <path
       id="path2866"
       d="M 349,-308 C 347,-288 341,-239 338,-218"
       style="fill:none;stroke:#000000" />
  </g>
  <g
     class="edge"
     id="edge78"
     transform="translate(4,537)">
    <title
       id="title2869">c14-&gt;c13</title>
    <path
       id="path2871"
       d="M 353,-308 C 360,-287 378,-238 385,-218"
       style="fill:none;stroke:#000000" />
  </g>
  <g
     class="edge"
     id="edge26"
     transform="translate(4,537)">
    <title
       id="title2874">c14-&gt;c14</title>
    <path
       id="path2876"
       d="M 357,-323 C 366,-327 377,-326 377,-317 C 377,-308 366,-307 357,-311"
       style="fill:none;stroke:none" />
    <text
       id="text2878"
       style="font-size:14px;text-anchor:middle;font-family:Times New Roman"
       y="-335"
       x="350">has limbs</text>
  </g>
  <g
     class="node"
     id="node29"
     transform="translate(4,537)">
    <title
       id="title2881">c15</title>
    <ellipse
       sodipodi:ry="9"
       sodipodi:rx="9"
       sodipodi:cy="-317"
       sodipodi:cx="426"
       id="ellipse2883"
       ry="9"
       rx="9"
       cy="-317"
       cx="426"
       style="fill:#d3d3d3;stroke:#000000" />
  </g>
  <g
     class="edge"
     id="edge80"
     transform="translate(4,537)">
    <title
       id="title2886">c15-&gt;c13</title>
    <path
       id="path2888"
       d="M 423,-308 C 416,-287 398,-238 391,-218"
       style="fill:none;stroke:#000000" />
  </g>
  <g
     class="edge"
     id="edge28"
     transform="translate(4,537)">
    <title
       id="title2891">c15-&gt;c15</title>
    <path
       id="path2893"
       d="M 433,-323 C 442,-327 453,-326 453,-317 C 453,-308 442,-307 433,-311"
       style="fill:none;stroke:none" />
    <text
       id="text2895"
       style="font-size:14px;text-anchor:middle;font-family:Times New Roman"
       y="-295"
       x="429">fish leech</text>
  </g>
  <g
     class="node"
     id="node31"
     transform="translate(4,537)">
    <title
       id="title2898">c16</title>
    <ellipse
       sodipodi:ry="9"
       sodipodi:rx="9"
       sodipodi:cy="-409"
       sodipodi:cx="282"
       id="ellipse2900"
       ry="9"
       rx="9"
       cy="-409"
       cx="282"
       style="fill:#d3d3d3;stroke:#000000" />
  </g>
  <g
     class="edge"
     id="edge82"
     transform="translate(4,537)">
    <title
       id="title2903">c16-&gt;c5</title>
    <path
       id="path2905"
       d="M 277,-401 C 259,-368 191,-249 173,-217"
       style="fill:none;stroke:#000000" />
  </g>
  <g
     class="edge"
     id="edge84"
     transform="translate(4,537)">
    <title
       id="title2908">c16-&gt;c10</title>
    <path
       id="path2910"
       d="M 280,-400 C 275,-374 261,-298 257,-272"
       style="fill:none;stroke:#000000" />
  </g>
  <g
     class="edge"
     id="edge86"
     transform="translate(4,537)">
    <title
       id="title2913">c16-&gt;c15</title>
    <path
       id="path2915"
       d="M 290,-404 C 315,-388 393,-338 418,-322"
       style="fill:none;stroke:#000000" />
  </g>
  <g
     class="edge"
     id="edge30"
     transform="translate(4,537)">
    <title
       id="title2918">c16-&gt;c16</title>
    <path
       id="path2920"
       d="M 289,-415 C 298,-419 309,-418 309,-409 C 309,-400 298,-399 289,-403"
       style="fill:none;stroke:none" />
    <text
       id="text2922"
       style="font-size:14px;text-anchor:middle;font-family:Times New Roman"
       y="-427"
       x="282">lives in water</text>
  </g>
  <g
     class="node"
     id="node33"
     transform="translate(4,537)">
    <title
       id="title2925">c17</title>
    <ellipse
       sodipodi:ry="9"
       sodipodi:rx="9"
       sodipodi:cy="-409"
       sodipodi:cx="350"
       id="ellipse2927"
       ry="9"
       rx="9"
       cy="-409"
       cx="350"
       style="fill:#d3d3d3;stroke:#000000" />
  </g>
  <g
     class="edge"
     id="edge88"
     transform="translate(4,537)">
    <title
       id="title2930">c17-&gt;c14</title>
    <path
       id="path2932"
       d="M 350,-400 C 350,-383 350,-344 350,-326"
       style="fill:none;stroke:#000000" />
  </g>
  <g
     class="edge"
     id="edge90"
     transform="translate(4,537)">
    <title
       id="title2935">c17-&gt;c15</title>
    <path
       id="path2937"
       d="M 357,-404 C 368,-396 389,-381 402,-364 C 411,-352 419,-335 423,-325"
       style="fill:none;stroke:#000000" />
  </g>
  <g
     class="edge"
     id="edge32"
     transform="translate(11.156085,531.27513)">
    <title
       id="title2940">c17-&gt;c17</title>
    <path
       id="path2942"
       d="M 357,-415 C 366,-419 377,-418 377,-409 C 377,-400 366,-399 357,-403"
       style="fill:none;stroke:none" />
    <text
       id="text2944"
       style="font-size:14px;text-anchor:middle;font-family:Times New Roman"
       y="-427"
       x="350">can move</text>
  </g>
  <g
     class="node"
     id="node35"
     transform="translate(4,537)">
    <title
       id="title2947">c18</title>
    <ellipse
       sodipodi:ry="9"
       sodipodi:rx="9"
       sodipodi:cy="-501"
       sodipodi:cx="255"
       id="ellipse2949"
       ry="9"
       rx="9"
       cy="-501"
       cx="255"
       style="fill:#d3d3d3;stroke:#000000" />
  </g>
  <g
     class="edge"
     id="edge92"
     transform="translate(4,537)">
    <title
       id="title2952">c18-&gt;c7</title>
    <path
       id="path2954"
       d="M 248,-495 C 231,-478 184,-432 167,-415"
       style="fill:none;stroke:#000000" />
  </g>
  <g
     class="edge"
     id="edge94"
     transform="translate(4,537)">
    <title
       id="title2957">c18-&gt;c12</title>
    <path
       id="path2959"
       d="M 252,-492 C 247,-474 236,-435 231,-418"
       style="fill:none;stroke:#000000" />
  </g>
  <g
     class="edge"
     id="edge96"
     transform="translate(4,537)">
    <title
       id="title2962">c18-&gt;c16</title>
    <path
       id="path2964"
       d="M 258,-492 C 263,-474 274,-435 279,-418"
       style="fill:none;stroke:#000000" />
  </g>
  <g
     class="edge"
     id="edge98"
     transform="translate(4,535.56878)">
    <title
       id="title2967">c18-&gt;c17</title>
    <path
       id="path2969"
       d="M 262,-495 C 279,-478 326,-432 343,-415"
       style="fill:none;stroke:#000000" />
  </g>
  <g
     class="edge"
     id="edge34"
     transform="translate(4,537)">
    <title
       id="title2972">c18-&gt;c18</title>
    <path
       id="path2974"
       d="M 262,-507 C 271,-511 282,-510 282,-501 C 282,-492 271,-491 262,-495"
       style="fill:none;stroke:none" />
    <text
       id="text2976"
       style="font-size:14px;text-anchor:middle;font-family:Times New Roman"
       y="-519"
       x="255">needs water to live</text>
  </g>
</svg>
